<?xml version="1.0" encoding="UTF-8"?>
<!DOCTYPE svg PUBLIC "-//W3C//DTD SVG 1.1//EN" "http://www.w3.org/Graphics/SVG/1.1/DTD/svg11.dtd">
<!-- Creator: CorelDRAW 2020 (64-Bit) -->
<svg xmlns="http://www.w3.org/2000/svg" xml:space="preserve" width="83px" height="83px" version="1.1" style="shape-rendering:geometricPrecision; text-rendering:geometricPrecision; image-rendering:optimizeQuality; fill-rule:evenodd; clip-rule:evenodd"
viewBox="0 0 0.94 0.94"
 xmlns:xlink="http://www.w3.org/1999/xlink"
 xmlns:xodm="http://www.corel.com/coreldraw/odm/2003">
 <defs>
  <style type="text/css">
   <![CDATA[
    .fil0 {fill:none}
    .fil1 {fill:none;fill-rule:nonzero}
    .fil2 {fill:#383838;fill-rule:nonzero}
   ]]>
  </style>
 </defs>
 <g id="Plan_x0020_1">
  <metadata id="CorelCorpID_0Corel-Layer"/>
  <rect class="fil0" width="0.94" height="0.94" rx="0.02" ry="0.02"/>
  <polygon class="fil1" points="0.83,0.83 0.12,0.83 0.12,0.12 0.83,0.12 "/>
  <path class="fil2" d="M0.43 0.34c0.02,0 0.04,-0.02 0.04,-0.05 0,-0.02 -0.02,-0.04 -0.04,-0.04 -0.03,0 -0.05,0.02 -0.05,0.04 0,0.03 0.02,0.05 0.05,0.05zm0.16 0.03c0.05,0 0.09,-0.04 0.09,-0.09 0,-0.05 -0.04,-0.09 -0.09,-0.09 -0.05,0 -0.09,0.04 -0.09,0.09 0,0.05 0.04,0.09 0.09,0.09zm0 -0.12l0 0c0.02,0 0.03,0.01 0.03,0.03 0,0.02 -0.01,0.03 -0.03,0.03 -0.02,0 -0.03,-0.01 -0.03,-0.03 0,-0.02 0.01,-0.03 0.03,-0.03zm0.15 0.21l-0.42 0 0 -0.09c0,-0.01 0,-0.02 -0.01,-0.03l-0.09 -0.06c-0.01,0 -0.02,0 -0.03,0 -0.01,0.01 -0.01,0.02 -0.01,0.03l0 0.41c0,0.02 0.01,0.03 0.03,0.03l0.53 0c0.01,0 0.03,-0.01 0.03,-0.03l0 -0.23c0,-0.02 -0.02,-0.03 -0.03,-0.03zm-0.03 0.23l0 0 -0.48 0 0 -0.33 0.03 0.02 0 0.11c0,0.01 0.02,0.03 0.03,0.03l0.42 0 0 0.17zm-0.42 -0.06l0.09 0 0 -0.06 -0.09 0 0 0.06zm0.24 -0.06l-0.09 0 0 0.06 0.09 0 0 -0.06zm0.15 0l-0.09 0 0 0.06 0.09 0 0 -0.06z"/>
 </g>
</svg>
