<?xml version="1.0" encoding="UTF-8"?>
<!DOCTYPE svg PUBLIC "-//W3C//DTD SVG 1.1//EN" "http://www.w3.org/Graphics/SVG/1.1/DTD/svg11.dtd">
<!-- Creator: CorelDRAW 2020 (64-Bit) -->
<svg xmlns="http://www.w3.org/2000/svg" xml:space="preserve" width="83px" height="83px" version="1.1" style="shape-rendering:geometricPrecision; text-rendering:geometricPrecision; image-rendering:optimizeQuality; fill-rule:evenodd; clip-rule:evenodd"
viewBox="0 0 0.94 0.94"
 xmlns:xlink="http://www.w3.org/1999/xlink"
 xmlns:xodm="http://www.corel.com/coreldraw/odm/2003">
 <defs>
  <style type="text/css">
   <![CDATA[
    .fil0 {fill:none}
    .fil1 {fill:none;fill-rule:nonzero}
    .fil2 {fill:#383838;fill-rule:nonzero}
   ]]>
  </style>
 </defs>
 <g id="Plan_x0020_1">
  <metadata id="CorelCorpID_0Corel-Layer"/>
  <rect class="fil0" width="0.94" height="0.94" rx="0.02" ry="0.02"/>
  <polygon class="fil1" points="0.83,0.83 0.12,0.83 0.12,0.12 0.83,0.12 "/>
  <path class="fil2" d="M0.27 0.56l-0.08 0.09c-0.02,0.02 -0.02,0.06 0,0.08 0.02,0.02 0.06,0.02 0.08,0l0.09 -0.08 -0.02 -0.03 0.05 -0.04c0.03,0.02 0.08,0.04 0.13,0.04 0.06,0 0.13,-0.03 0.17,-0.08 0.1,-0.09 0.1,-0.24 0.02,-0.33 -0.04,-0.04 -0.1,-0.06 -0.16,-0.06 -0.06,0 -0.13,0.03 -0.17,0.08 -0.05,0.04 -0.08,0.1 -0.08,0.16 0,0.06 0.01,0.1 0.04,0.14l-0.05 0.05 -0.02 -0.02zm0.07 -0.17l0 0c0.01,-0.01 0.01,-0.03 0.02,-0.05l0.05 0.05 -0.06 0.06c0,-0.02 -0.01,-0.04 -0.01,-0.06zm0.1 0.04l0 0 0.05 0.05 -0.07 0.07c-0.01,-0.01 -0.02,-0.02 -0.03,-0.02 -0.01,-0.01 -0.01,-0.02 -0.02,-0.03l0.07 -0.07zm0.03 -0.04l0 0 0.08 -0.07 0.05 0.05 -0.08 0.08 -0.05 -0.06zm0 0.18l0 0 0.05 -0.06 0.06 0.05c-0.02,0.01 -0.04,0.01 -0.06,0.01 -0.02,0 -0.04,0 -0.05,0zm0.19 -0.06l0 0c-0.01,0.01 -0.02,0.02 -0.04,0.03l-0.06 -0.06 0.07 -0.07 0.06 0.06c0,0.02 -0.02,0.03 -0.03,0.04zm0.05 -0.08l0 0 -0.05 -0.06 0.06 -0.05c0.01,0.03 0.01,0.07 -0.01,0.11zm-0.01 -0.16l0 0 -0.07 0.07 -0.05 -0.05 0.07 -0.07c0.01,0.01 0.02,0.01 0.03,0.02 0,0.01 0.01,0.02 0.02,0.03zm-0.1 -0.07l0 0 -0.05 0.06 -0.06 -0.06c0.02,0 0.04,-0.01 0.06,-0.01 0.02,0 0.04,0.01 0.05,0.01zm-0.19 0.06l0 0c0.01,-0.02 0.02,-0.03 0.04,-0.04l0.06 0.07 -0.07 0.07 -0.06 -0.06c0,-0.02 0.01,-0.03 0.03,-0.04zm0.26 0.35c-0.04,0 -0.08,0.04 -0.08,0.09 0,0.05 0.04,0.09 0.08,0.09 0.05,0 0.09,-0.04 0.09,-0.09 0,-0.05 -0.04,-0.09 -0.09,-0.09zm0 0.12l0 0c-0.01,0 -0.02,-0.01 -0.02,-0.03 0,-0.01 0.01,-0.03 0.02,-0.03 0.02,0 0.03,0.02 0.03,0.03 0,0.02 -0.01,0.03 -0.03,0.03z"/>
 </g>
</svg>
