<?xml version="1.0" encoding="UTF-8"?>
<!DOCTYPE svg PUBLIC "-//W3C//DTD SVG 1.1//EN" "http://www.w3.org/Graphics/SVG/1.1/DTD/svg11.dtd">
<!-- Creator: CorelDRAW 2020 (64-Bit) -->
<svg xmlns="http://www.w3.org/2000/svg" xml:space="preserve" width="83px" height="83px" version="1.1" style="shape-rendering:geometricPrecision; text-rendering:geometricPrecision; image-rendering:optimizeQuality; fill-rule:evenodd; clip-rule:evenodd"
viewBox="0 0 0.94 0.94"
 xmlns:xlink="http://www.w3.org/1999/xlink"
 xmlns:xodm="http://www.corel.com/coreldraw/odm/2003">
 <defs>
  <style type="text/css">
   <![CDATA[
    .fil0 {fill:none}
    .fil1 {fill:none;fill-rule:nonzero}
    .fil2 {fill:#383838;fill-rule:nonzero}
   ]]>
  </style>
 </defs>
 <g id="Plan_x0020_1">
  <metadata id="CorelCorpID_0Corel-Layer"/>
  <rect class="fil0" width="0.94" height="0.94" rx="0.02" ry="0.02"/>
  <polygon class="fil1" points="0.83,0.83 0.12,0.83 0.12,0.12 0.83,0.12 "/>
  <path class="fil2" d="M0.69 0.67c0.01,0 0.02,-0.01 0.02,-0.02l0 -0.09 -0.06 0 0 0.07 -0.12 0.08 0 -0.36c0,-0.01 0,-0.01 -0.01,-0.02l-0.15 -0.12c0,0 -0.01,0 -0.02,0 0,0 -0.01,0 -0.01,0l-0.18 0.12c-0.01,0 -0.01,0.01 -0.01,0.02l0 0.42c0,0.01 0,0.02 0.01,0.02 0.01,0 0.01,0.01 0.02,0.01 0,0 0.01,-0.01 0.01,-0.01l0.16 -0.11 0.13 0.11c0.01,0 0.01,0.01 0.02,0.01 0.01,0 0.01,-0.01 0.02,-0.01l0.17 -0.12zm-0.48 -0.3l0 0 0.11 -0.08 0 0.34 -0.11 0.08 0 -0.34zm0.26 0.33l0 0 -0.09 -0.07 0 -0.33 0.09 0.07 0 0.33zm0.21 -0.18l0.02 -0.03c0.01,-0.01 0.1,-0.13 0.1,-0.23 0,-0.06 -0.06,-0.11 -0.12,-0.11 -0.07,0 -0.12,0.05 -0.12,0.11 0,0.1 0.09,0.22 0.09,0.23l0.03 0.03zm0 -0.31l0 0c0.03,0 0.06,0.02 0.06,0.05 0,0.05 -0.04,0.12 -0.06,0.16 -0.03,-0.04 -0.06,-0.11 -0.06,-0.16 0,-0.03 0.03,-0.05 0.06,-0.05zm0.03 0.05c0,-0.01 -0.02,-0.03 -0.03,-0.03 -0.02,0 -0.03,0.02 -0.03,0.03 0,0.02 0.01,0.03 0.03,0.03 0.01,0 0.03,-0.01 0.03,-0.03z"/>
 </g>
</svg>
