<?xml version="1.0" encoding="UTF-8"?>
<!DOCTYPE svg PUBLIC "-//W3C//DTD SVG 1.1//EN" "http://www.w3.org/Graphics/SVG/1.1/DTD/svg11.dtd">
<!-- Creator: CorelDRAW 2019 (64-Bit) -->
<svg xmlns="http://www.w3.org/2000/svg" xml:space="preserve" width="273px" height="273px" version="1.1" style="shape-rendering:geometricPrecision; text-rendering:geometricPrecision; image-rendering:optimizeQuality; fill-rule:evenodd; clip-rule:evenodd"
viewBox="0 0 13.83 13.83"
 xmlns:xlink="http://www.w3.org/1999/xlink">
 <defs>
  <style type="text/css">
   <![CDATA[
    .fil0 {fill:none;fill-rule:nonzero}
    .fil1 {fill:#757575;fill-rule:nonzero}
   ]]>
  </style>
 </defs>
 <g id="Plan_x0020_1">
  <metadata id="CorelCorpID_0Corel-Layer"/>
  <g id="_1712295342320">
   <g>
    <polygon class="fil0" points="13.83,13.83 0,13.83 0,0 13.83,0 "/>
   </g>
   <path class="fil1" d="M12.68 5.19l0 -1.16 -1.15 0 0 -0.57c0,-0.64 -0.52,-1.15 -1.15,-1.15l-0.58 0 0 -1.16 -1.15 0 0 1.16 -1.16 0 0 -1.16 -1.15 0 0 1.16 -1.15 0 0 -1.16 -1.16 0 0 1.16 -0.57 0c-0.64,0 -1.15,0.51 -1.15,1.15l0 0.57 -1.16 0 0 1.16 1.16 0 0 1.15 -1.16 0 0 1.15 1.16 0 0 1.16 -1.16 0 0 1.15 1.16 0 0 0.58c0,0.63 0.51,1.15 1.15,1.15l0.57 0 0 1.15 1.16 0 0 -1.15 1.15 0 0 1.15 1.15 0 0 -1.15 1.16 0 0 1.15 1.15 0 0 -1.15 0.58 0c0.63,0 1.15,-0.52 1.15,-1.15l0 -0.58 1.15 0 0 -1.15 -1.15 0 0 -1.16 1.15 0 0 -1.15 -1.15 0 0 -1.15 1.15 0zm-9.22 5.19l0 0 0 -6.92 6.92 0 0 6.92 -6.92 0z"/>
  </g>
 </g>
</svg>
