<?xml version="1.0" encoding="UTF-8"?>
<!DOCTYPE svg PUBLIC "-//W3C//DTD SVG 1.1//EN" "http://www.w3.org/Graphics/SVG/1.1/DTD/svg11.dtd">
<!-- Creator: CorelDRAW 2020 (64-Bit) -->
<svg xmlns="http://www.w3.org/2000/svg" xml:space="preserve" width="83px" height="83px" version="1.1" style="shape-rendering:geometricPrecision; text-rendering:geometricPrecision; image-rendering:optimizeQuality; fill-rule:evenodd; clip-rule:evenodd"
viewBox="0 0 0.94 0.94"
 xmlns:xlink="http://www.w3.org/1999/xlink"
 xmlns:xodm="http://www.corel.com/coreldraw/odm/2003">
 <defs>
  <style type="text/css">
   <![CDATA[
    .fil0 {fill:none}
    .fil1 {fill:none;fill-rule:nonzero}
    .fil2 {fill:#383838;fill-rule:nonzero}
   ]]>
  </style>
 </defs>
 <g id="Plan_x0020_1">
  <metadata id="CorelCorpID_0Corel-Layer"/>
  <rect class="fil0" width="0.94" height="0.94" rx="0.02" ry="0.02"/>
  <polygon class="fil1" points="0.83,0.83 0.12,0.83 0.12,0.12 0.83,0.12 "/>
  <path class="fil2" d="M0.78 0.36l-0.3 -0.15c0,-0.01 -0.01,-0.01 -0.02,0l-0.3 0.15c0,0 -0.01,0 -0.01,0.01 0,0 0,0.01 0,0.01l0 0.17c0,0.02 0.01,0.03 0.03,0.03 0.01,0 0.03,-0.01 0.03,-0.03l0 -0.12 0.05 0.02 0 0.14c0,0.02 0.01,0.03 0.02,0.03 0.05,0.03 0.1,0.06 0.19,0.06 0.09,0 0.14,-0.03 0.19,-0.06 0.01,0 0.02,-0.01 0.02,-0.03l0 -0.14 0.1 -0.04c0.01,0 0.02,-0.01 0.02,-0.03 0,-0.01 -0.01,-0.02 -0.02,-0.02zm-0.16 0.22l0 0 -0.03 0.01c-0.07,0.04 -0.16,0.04 -0.24,0l-0.03 -0.01 0 -0.11 0.14 0.06c0,0 0.01,0 0.01,0 0,0 0.01,0 0.01,0l0.14 -0.06 0 0.11zm-0.15 -0.11l0 0 -0.22 -0.09 0.22 -0.11 0.22 0.11 -0.22 0.09zm-0.29 0.15c-0.02,0 -0.03,0.01 -0.03,0.03l0 0.06c0,0.01 0.01,0.03 0.03,0.03 0.01,0 0.03,-0.02 0.03,-0.03l0 -0.06c0,-0.02 -0.02,-0.03 -0.03,-0.03z"/>
 </g>
</svg>
