<?xml version="1.0" encoding="UTF-8"?>
<!DOCTYPE svg PUBLIC "-//W3C//DTD SVG 1.1//EN" "http://www.w3.org/Graphics/SVG/1.1/DTD/svg11.dtd">
<!-- Creator: CorelDRAW 2020 (64-Bit) -->
<svg xmlns="http://www.w3.org/2000/svg" xml:space="preserve" width="83px" height="83px" version="1.1" style="shape-rendering:geometricPrecision; text-rendering:geometricPrecision; image-rendering:optimizeQuality; fill-rule:evenodd; clip-rule:evenodd"
viewBox="0 0 0.94 0.94"
 xmlns:xlink="http://www.w3.org/1999/xlink"
 xmlns:xodm="http://www.corel.com/coreldraw/odm/2003">
 <defs>
  <style type="text/css">
   <![CDATA[
    .fil0 {fill:none}
    .fil1 {fill:none;fill-rule:nonzero}
    .fil2 {fill:#383838;fill-rule:nonzero}
   ]]>
  </style>
 </defs>
 <g id="Plan_x0020_1">
  <metadata id="CorelCorpID_0Corel-Layer"/>
  <rect class="fil0" width="0.94" height="0.94" rx="0.02" ry="0.02"/>
  <polygon class="fil1" points="0.83,0.83 0.12,0.83 0.12,0.12 0.83,0.12 "/>
  <path class="fil2" d="M0.73 0.58c-0.01,-0.04 -0.04,-0.07 -0.06,-0.11 0.08,-0.11 0.12,-0.22 0.07,-0.27 -0.01,-0.01 -0.03,-0.02 -0.06,-0.02 -0.05,0 -0.13,0.03 -0.21,0.1 -0.08,-0.07 -0.16,-0.1 -0.21,-0.1 -0.03,0 -0.05,0.01 -0.06,0.02 -0.05,0.05 -0.01,0.16 0.08,0.27 -0.03,0.04 -0.05,0.07 -0.07,0.11 -0.05,0.09 -0.03,0.14 -0.01,0.16 0.01,0.01 0.03,0.02 0.06,0.02 0.05,0 0.13,-0.03 0.21,-0.09 0.08,0.06 0.16,0.09 0.21,0.09 0.03,0 0.05,-0.01 0.06,-0.02 0.03,-0.02 0.04,-0.07 -0.01,-0.16zm-0.05 -0.34l0 0c0.01,0 0.02,0 0.02,0 0.02,0.02 0,0.09 -0.07,0.18 -0.04,-0.04 -0.07,-0.07 -0.11,-0.11 0.07,-0.05 0.13,-0.07 0.16,-0.07zm-0.09 0.23l0 0c-0.02,0.02 -0.03,0.04 -0.06,0.06 -0.02,0.02 -0.04,0.04 -0.06,0.06 -0.02,-0.02 -0.04,-0.04 -0.06,-0.06 -0.02,-0.02 -0.04,-0.04 -0.06,-0.06 0.02,-0.02 0.04,-0.04 0.06,-0.06 0.02,-0.02 0.04,-0.04 0.06,-0.06 0.02,0.02 0.04,0.04 0.06,0.06 0.02,0.02 0.04,0.04 0.06,0.06zm-0.35 -0.23l0 0c0.01,0 0.01,0 0.02,0 0.03,0 0.09,0.02 0.16,0.07 -0.04,0.04 -0.07,0.07 -0.11,0.11 -0.07,-0.09 -0.08,-0.16 -0.07,-0.18zm0.02 0.47l0 0c-0.01,0 -0.01,-0.01 -0.02,-0.01 -0.01,-0.01 -0.01,-0.04 0.02,-0.1 0.01,-0.02 0.03,-0.05 0.05,-0.08 0.04,0.04 0.07,0.07 0.11,0.11 -0.07,0.05 -0.13,0.08 -0.16,0.08zm0.44 -0.01l0 0c0,0 -0.01,0.01 -0.02,0.01 -0.03,0 -0.09,-0.03 -0.16,-0.08 0.04,-0.04 0.07,-0.07 0.11,-0.11 0.02,0.03 0.04,0.06 0.05,0.08 0.03,0.06 0.03,0.09 0.02,0.1zm-0.23 -0.29c-0.03,0 -0.06,0.03 -0.06,0.06 0,0.03 0.03,0.06 0.06,0.06 0.03,0 0.06,-0.03 0.06,-0.06 0,-0.03 -0.03,-0.06 -0.06,-0.06z"/>
 </g>
</svg>
