<?xml version="1.0" encoding="UTF-8"?>
<!DOCTYPE svg PUBLIC "-//W3C//DTD SVG 1.1//EN" "http://www.w3.org/Graphics/SVG/1.1/DTD/svg11.dtd">
<!-- Creator: CorelDRAW 2020 (64-Bit) -->
<svg xmlns="http://www.w3.org/2000/svg" xml:space="preserve" width="83px" height="83px" version="1.1" style="shape-rendering:geometricPrecision; text-rendering:geometricPrecision; image-rendering:optimizeQuality; fill-rule:evenodd; clip-rule:evenodd"
viewBox="0 0 0.94 0.94"
 xmlns:xlink="http://www.w3.org/1999/xlink"
 xmlns:xodm="http://www.corel.com/coreldraw/odm/2003">
 <defs>
  <style type="text/css">
   <![CDATA[
    .fil0 {fill:none}
    .fil1 {fill:none;fill-rule:nonzero}
    .fil2 {fill:#383838;fill-rule:nonzero}
   ]]>
  </style>
 </defs>
 <g id="Plan_x0020_1">
  <metadata id="CorelCorpID_0Corel-Layer"/>
  <rect class="fil0" width="0.94" height="0.94" rx="0.02" ry="0.02"/>
  <polygon class="fil1" points="0.83,0.83 0.12,0.83 0.12,0.12 0.83,0.12 "/>
  <path class="fil2" d="M0.71 0.3c-0.01,-0.01 -0.02,0 -0.03,0 0,0.01 -0.01,0.02 -0.04,0.03l0 -0.12c0,-0.02 -0.01,-0.03 -0.02,-0.03 -0.01,-0.01 -0.02,0 -0.03,0 0,0.01 -0.05,0.06 -0.16,0.06 -0.1,0 -0.16,-0.05 -0.16,-0.06 -0.01,0 -0.02,-0.01 -0.03,0 -0.01,0 -0.02,0.01 -0.02,0.03l0 0.27c0,0.03 0.02,0.08 0.09,0.13 0.01,0.11 0.18,0.16 0.2,0.17 0.01,0 0.01,0 0.01,0 0,0 0.01,0 0.01,0 0.02,-0.01 0.2,-0.06 0.2,-0.18l0 -0.27c0,-0.02 -0.01,-0.03 -0.02,-0.03zm-0.38 0l0 0c-0.01,0 -0.02,0.01 -0.02,0.03l0 0.2c-0.02,-0.01 -0.03,-0.03 -0.03,-0.05l0 -0.22c0.03,0.02 0.08,0.04 0.15,0.04 0.07,0 0.12,-0.02 0.15,-0.04l0 0.09c-0.02,0 -0.04,0.01 -0.06,0.01 -0.1,0 -0.16,-0.05 -0.16,-0.06 -0.01,0 -0.02,-0.01 -0.03,0zm0.34 0.3l0 0c0,0.06 -0.1,0.1 -0.15,0.12 -0.05,-0.02 -0.15,-0.06 -0.15,-0.12l0 -0.22c0.03,0.02 0.08,0.04 0.15,0.04 0.07,0 0.12,-0.02 0.15,-0.04l0 0.22zm-0.21 -0.08c0.02,0 0.03,-0.01 0.03,-0.03 0,-0.02 -0.01,-0.03 -0.03,-0.03 -0.02,0 -0.03,0.01 -0.03,0.03 0,0.02 0.01,0.03 0.03,0.03zm0.12 0c0.02,0 0.03,-0.01 0.03,-0.03 0,-0.02 -0.01,-0.03 -0.03,-0.03 -0.02,0 -0.03,0.01 -0.03,0.03 0,0.02 0.01,0.03 0.03,0.03zm-0.09 0.05l-0.06 0c0,0.05 0.04,0.09 0.09,0.09 0.05,0 0.09,-0.04 0.09,-0.09l-0.06 0c0,0.01 -0.01,0.03 -0.03,0.03 -0.02,0 -0.03,-0.02 -0.03,-0.03z"/>
 </g>
</svg>
